HIERARCHY
ROOT Hips
{
 OFFSET 0.000000 0.000000 0.000000
 CHANNELS 6 Xposition Yposition Zposition Yrotation Xrotation Zrotation
 JOINT Chest
 {
  OFFSET 0.000000 14.634200 -0.016200
  CHANNELS 3 Yrotation Xrotation Zrotation
  JOINT Chest2
  {
   OFFSET 0.000000 8.932900 0.033000
   CHANNELS 3 Yrotation Xrotation Zrotation
   JOINT Chest3
   {
    OFFSET 0.000000 8.892300 0.000000
    CHANNELS 3 Yrotation Xrotation Zrotation
    JOINT Chest4
    {
     OFFSET 0.000000 8.883200 0.000000
     CHANNELS 3 Yrotation Xrotation Zrotation
     JOINT Neck
     {
      OFFSET 0.000000 13.173600 0.000000
      CHANNELS 3 Yrotation Xrotation Zrotation
      JOINT Head
      {
       OFFSET 0.000000 8.324600 0.069800
       CHANNELS 3 Yrotation Xrotation Zrotation
       End Site
       {
        OFFSET 0.000000 15.692400 0.036900
       }
      }
     }
     JOINT RightCollar
     {
      OFFSET -2.619200 8.772200 0.000000
      CHANNELS 3 Yrotation Xrotation Zrotation
      JOINT RightShoulder
      {
       OFFSET -12.922000 0.000000 0.000000
       CHANNELS 3 Yrotation Xrotation Zrotation
       JOINT RightElbow
       {
        OFFSET 0.000000 -27.880900 0.000000
        CHANNELS 3 Yrotation Xrotation Zrotation
        JOINT RightWrist
        {
         OFFSET 0.000000 -22.758700 0.008200
         CHANNELS 3 Yrotation Xrotation Zrotation
         End Site
         {
          OFFSET 0.000000 -16.965000 0.000000
         }
        }
       }
      }
     }
     JOINT LeftCollar
     {
      OFFSET 2.619200 8.772200 0.000000
      CHANNELS 3 Yrotation Xrotation Zrotation
      JOINT LeftShoulder
      {
       OFFSET 12.922000 0.000000 0.000000
       CHANNELS 3 Yrotation Xrotation Zrotation
       JOINT LeftElbow
       {
        OFFSET 0.000000 -27.880900 0.000000
        CHANNELS 3 Yrotation Xrotation Zrotation
        JOINT LeftWrist
        {
         OFFSET 0.000000 -22.758700 0.008200
         CHANNELS 3 Yrotation Xrotation Zrotation
         End Site
         {
          OFFSET 0.000000 -16.965000 0.000000
         }
        }
       }
      }
     }
    }
   }
  }
 }
 JOINT RightHip
 {
  OFFSET -12.026800 0.080100 0.008100
  CHANNELS 3 Yrotation Xrotation Zrotation
  JOINT RightKnee
  {
   OFFSET 0.000000 -42.600800 -0.000200
   CHANNELS 3 Yrotation Xrotation Zrotation
   JOINT RightAnkle
   {
    OFFSET 0.000000 -38.219300 0.054300
    CHANNELS 3 Yrotation Xrotation Zrotation
    JOINT RightToe
    {
     OFFSET 0.000000 -9.685800 15.804700
     CHANNELS 3 Yrotation Xrotation Zrotation
     End Site
     {
      OFFSET 0.000000 -1.422300 5.761700
     }
    }
   }
  }
 }
 JOINT LeftHip
 {
  OFFSET 12.026800 0.080100 0.008100
  CHANNELS 3 Yrotation Xrotation Zrotation
  JOINT LeftKnee
  {
   OFFSET 0.000000 -42.600800 -0.000200
   CHANNELS 3 Yrotation Xrotation Zrotation
   JOINT LeftAnkle
   {
    OFFSET 0.000000 -38.219300 0.054300
    CHANNELS 3 Yrotation Xrotation Zrotation
    JOINT LeftToe
    {
     OFFSET 0.000000 -9.685800 15.804700
     CHANNELS 3 Yrotation Xrotation Zrotation
     End Site
     {
      OFFSET 0.000000 -1.422300 5.761700
     }
    }
   }
  }
 }
}
MOTION
Frames: 5
Frame Time: 0.008333
-15.728444 129.849668 31.480258 170.455594 -27.383895 0.812237 1.178273 21.615425 1.489425 0.122172 2.920131 0.170979 0.210979 4.751244 0.286463 0.926439 18.389191 1.210191 -0.019391 11.263169 -4.475755 1.003689 -13.799645 -4.792937 5.831455 0.290927 -2.016512 16.832526 -26.001504 -13.849515 46.768041 -54.486388 -29.965036 19.933814 -1.753563 -26.429971 -9.503608 1.115639 -2.665524 -3.006237 -29.434011 11.999280 -28.862701 -68.076364 11.636460 -13.749396 8.509172 3.454115 -2.935468 -45.179171 12.012521 -30.577390 76.202053 -43.363073 -8.156314 -18.405931 9.163746 0.007768 -0.012865 0.004760 14.169494 -48.132138 -17.683045 84.174273 76.106648 91.510784 7.738437 6.726149 -3.083864 0.012989 0.000359 0.007960
-15.728263 129.850232 31.480058 170.440484 -27.386893 0.807404 1.188918 21.620612 1.494500 0.107287 2.923260 0.164894 0.218921 4.751649 0.287067 0.923333 18.392410 1.210394 -0.010814 11.257032 -4.474315 1.007700 -13.801856 -4.792788 5.826271 0.282158 -2.013215 16.848198 -26.001708 -13.851062 46.766101 -54.488239 -29.962208 19.935897 -1.757927 -26.427136 -9.505463 1.108730 -2.655459 -3.063303 -29.428042 12.015392 -28.773988 -68.071804 11.600962 -13.717540 8.470695 3.500401 -2.943306 -45.169522 12.020110 -30.526632 76.200630 -43.306874 -8.154412 -18.412449 9.165362 0.007691 -0.011190 0.004713 14.145373 -48.138703 -17.670291 84.211676 76.096411 91.552823 7.749071 6.725028 -3.100433 0.012944 0.000721 0.007933
-15.728480 129.850638 31.480310 170.427928 -27.388565 0.802680 1.181022 21.626394 1.488323 0.105947 2.923028 0.164182 0.220841 4.755429 0.286816 0.929170 18.392554 1.211139 -0.020021 11.257828 -4.474795 1.003337 -13.804558 -4.790917 5.820471 0.273041 -2.012764 16.861322 -26.000184 -13.851026 46.758366 -54.488181 -29.949230 19.936947 -1.756326 -26.436710 -9.515237 1.101476 -2.642933 -3.071094 -29.428197 12.015853 -28.677464 -68.071568 11.524045 -13.695329 8.438588 3.535458 -2.952774 -45.166124 12.024721 -30.503609 76.197130 -43.266033 -8.147126 -18.416368 9.153684 0.013570 -0.012236 0.008315 14.119905 -48.146052 -17.662147 84.239339 76.082684 91.583306 7.765220 6.726584 -3.114775 0.011072 0.001150 0.006785
-15.730806 129.851047 31.480381 170.421974 -27.390443 0.803641 1.151399 21.628272 1.463612 0.122975 2.924180 0.170522 0.221860 4.758472 0.288101 0.930573 18.393874 1.209648 -0.027929 11.260907 -4.474208 0.996483 -13.803485 -4.789442 5.813981 0.266004 -2.013425 16.838187 -26.006837 -13.847015 46.766027 -54.495828 -29.922898 19.929666 -1.748653 -26.450165 -9.525404 1.096521 -2.635476 -3.084744 -29.428972 12.023930 -28.579092 -68.078748 11.439446 -13.674470 8.422129 3.568176 -2.957682 -45.161371 12.016757 -30.485962 76.191431 -43.235528 -8.138962 -18.420934 9.145900 0.018435 -0.011265 0.011297 14.072656 -48.151410 -17.667626 84.291226 76.051053 91.624747 7.772868 6.707716 -3.106890 -0.000383 0.004948 -0.000235
-15.729839 129.851543 31.480689 170.401693 -27.393985 0.799138 1.158512 21.629552 1.466396 0.130192 2.926497 0.173079 0.197903 4.759137 0.278746 0.950405 18.393458 1.215303 -0.032994 11.268551 -4.475664 0.968540 -13.791798 -4.785468 5.807533 0.264373 -2.013864 16.830352 -26.006295 -13.844291 46.776417 -54.497788 -29.915579 19.923419 -1.754186 -26.452561 -9.537623 1.097421 -2.623040 -3.093960 -29.431657 12.028358 -28.407678 -68.101071 11.264622 -13.677793 8.420528 3.614558 -2.961458 -45.155651 12.023758 -30.449825 76.189068 -43.190653 -8.123596 -18.421337 9.137284 0.016966 -0.011038 0.010397 14.049674 -48.154930 -17.651025 84.317110 76.047004 91.656610 7.790125 6.704062 -3.120116 0.000595 0.004342 0.000365
